<?xml version="1.0" encoding="UTF-8" standalone="no"?>
<!-- Created with Inkscape (http://www.inkscape.org/) -->

<svg
   xmlns:dc="http://purl.org/dc/elements/1.1/"
   xmlns:cc="http://creativecommons.org/ns#"
   xmlns:rdf="http://www.w3.org/1999/02/22-rdf-syntax-ns#"
   xmlns:svg="http://www.w3.org/2000/svg"
   xmlns="http://www.w3.org/2000/svg"
   xmlns:sodipodi="http://sodipodi.sourceforge.net/DTD/sodipodi-0.dtd"
   xmlns:inkscape="http://www.inkscape.org/namespaces/inkscape"
   width="210mm"
   height="297mm"
   viewBox="0 0 744.09448819 1052.3622047"
   id="svg2"
   version="1.1"
   inkscape:version="0.91 r13725"
   sodipodi:docname="background01.svg">
  <defs
     id="defs4" />
  <sodipodi:namedview
     id="base"
     pagecolor="#ffffff"
     bordercolor="#666666"
     borderopacity="1.0"
     inkscape:pageopacity="0.0"
     inkscape:pageshadow="2"
     inkscape:zoom="0.35"
     inkscape:cx="45.996485"
     inkscape:cy="573.12418"
     inkscape:document-units="px"
     inkscape:current-layer="layer1"
     showgrid="false"
     showguides="true"
     inkscape:guide-bbox="true"
     inkscape:window-width="1366"
     inkscape:window-height="706"
     inkscape:window-x="-8"
     inkscape:window-y="-8"
     inkscape:window-maximized="1">
    <sodipodi:guide
       position="-1377.1429,-257.14286"
       orientation="0.70710678,0.70710678"
       id="guide4140" />
  </sodipodi:namedview>
  <metadata
     id="metadata7">
    <rdf:RDF>
      <cc:Work
         rdf:about="">
        <dc:format>image/svg+xml</dc:format>
        <dc:type
           rdf:resource="http://purl.org/dc/dcmitype/StillImage" />
        <dc:title></dc:title>
      </cc:Work>
    </rdf:RDF>
  </metadata>
  <g
     inkscape:label="Layer 1"
     inkscape:groupmode="layer"
     id="layer1">
    <rect
       style="fill:#0080bb;fill-opacity:1"
       id="rect4138"
       width="6240"
       height="1922.8572"
       x="-2762.8569"
       y="-427.63791" />
    <path
       style="fill:none;fill-rule:evenodd;stroke:#000000;stroke-width:1px;stroke-linecap:butt;stroke-linejoin:miter;stroke-opacity:1"
       d="m -1374.2857,1318.0765 c 342.8571,-865.7143 337.1428,-854.28572 337.1428,-854.28572 L -780,1320.9336 l -5.71429,-2.8571 z"
       id="path4142"
       inkscape:connector-curvature="0" />
    <path
       style="fill:#00673c;fill-opacity:1"
       d="m -1366.6712,1302.7908 c 39.3446,-98.6979 292.7214,-739.92356 326.526,-826.34572 2.3787,-6.0814 22.6645,58.83698 128.09147,409.91712 68.8958,229.4286 126.00857,420.0357 126.91726,423.5714 l 1.65214,6.4286 -294.29847,0 -294.2984,0 5.41,-13.5714 z"
       id="path4144"
       inkscape:connector-curvature="0" />
    <rect
       style="fill:#cccccc;fill-opacity:1;stroke:none;stroke-opacity:1"
       id="rect4146"
       width="622.85712"
       height="239.99998"
       x="-1234.2858"
       y="-110.49494" />
    <rect
       y="6.6479154"
       x="-351.42862"
       height="239.99998"
       width="622.85712"
       id="rect4148"
       style="fill:#cccccc;fill-opacity:1" />
    <rect
       style="fill:#cccccc;fill-opacity:1"
       id="rect4150"
       width="622.85712"
       height="239.99998"
       x="682.85712"
       y="-136.20923" />
    <path
       inkscape:connector-curvature="0"
       id="path4152"
       d="m -1166.6712,1474.2194 c 39.3446,-98.6979 292.7214,-739.92358 326.526,-826.34574 2.3787,-6.0814 22.6645,58.83698 128.09147,409.91714 68.8958,229.4286 126.00857,420.0357 126.91726,423.5714 l 1.65214,6.4286 -294.29847,0 -294.2984,0 5.41,-13.5714 z"
       style="fill:#00673c;fill-opacity:1" />
    <path
       style="fill:#00673c;fill-opacity:1"
       d="m -79.118654,1378.5955 c 52.71355,-108.43 392.185544,-812.88386 437.476654,-907.82769 3.18696,-6.68106 30.36569,64.6386 171.61581,450.33706 92.30598,252.05143 168.82516,461.45343 170.04262,465.33773 l 2.21352,7.0625 -394.29848,0 -394.298394,0 7.24827,-14.9096 z"
       id="path4154"
       inkscape:connector-curvature="0" />
    <path
       inkscape:connector-curvature="0"
       id="path4156"
       d="m -776.26151,1352.8812 c 52.71355,-108.43 392.18554,-812.88385 437.47665,-907.82768 3.18696,-6.68106 30.36569,64.6386 171.61581,450.33706 C -74.863067,1147.442 1.6561129,1356.844 2.8735729,1360.7283 l 2.21352,7.0625 -394.2984829,0 -394.29839,0 7.24827,-14.9096 z"
       style="fill:#00673c;fill-opacity:1" />
    <path
       inkscape:connector-curvature="0"
       id="path4158"
       d="m 712.30992,1370.0241 c 52.71355,-108.43 392.18558,-812.88389 437.47668,-907.82772 3.1869,-6.68106 30.3657,64.6386 171.6158,450.33706 92.306,252.05146 168.8251,461.45346 170.0426,465.33776 l 2.2135,7.0625 -394.2985,0 -394.29835,0 7.24827,-14.9096 z"
       style="fill:#00673c;fill-opacity:1" />
  </g>
</svg>
